%TF.GenerationSoftware,Altium Limited,Altium Designer,23.4.1 (23)*%
G04 Layer_Color=0*
%FSLAX45Y45*%
%MOMM*%
%TF.SameCoordinates,E9D3CAE9-A23F-4039-930E-E97F2D72BBB1*%
%TF.FilePolarity,Positive*%
%TF.FileFunction,Plated,1,4,PTH,Drill*%
%TF.Part,Single*%
G01*
G75*
%TA.AperFunction,ViaDrill,NotFilled*%
%ADD74C,0.40000*%
%ADD75C,0.25000*%
%ADD76C,0.20000*%
D74*
X10500006Y8400005D02*
D03*
Y7200004D02*
D03*
X10400006Y7000004D02*
D03*
X10500006Y6800004D02*
D03*
Y6400003D02*
D03*
X10400006Y6200003D02*
D03*
X10300006Y8400005D02*
D03*
X10200006Y8200004D02*
D03*
X10300006Y7200004D02*
D03*
X10200006Y7000004D02*
D03*
X10000005Y8600005D02*
D03*
X10100005Y8400005D02*
D03*
X10000005Y8200004D02*
D03*
X10100005Y8000004D02*
D03*
X9900005Y8800005D02*
D03*
Y8400005D02*
D03*
Y8000004D02*
D03*
X9800005Y6600004D02*
D03*
X9700005Y8400005D02*
D03*
X9400005Y8200004D02*
D03*
X9500005Y7600004D02*
D03*
X9300005D02*
D03*
Y6400003D02*
D03*
X9200005Y6200003D02*
D03*
X9100005Y8800005D02*
D03*
X9000005Y8600005D02*
D03*
X9100005Y6800004D02*
D03*
Y6400003D02*
D03*
X8900005Y6800004D02*
D03*
X8800005Y6200003D02*
D03*
X8300004Y8800005D02*
D03*
X8200004Y8200004D02*
D03*
X8100004Y8800005D02*
D03*
Y7200004D02*
D03*
X8000004Y6600004D02*
D03*
X7900004Y8800005D02*
D03*
X7800004Y6600004D02*
D03*
Y6200003D02*
D03*
X7700004Y7600004D02*
D03*
X7600004Y6600004D02*
D03*
X7700004Y6400003D02*
D03*
X7600004Y6200003D02*
D03*
X7400004Y7800004D02*
D03*
Y7400004D02*
D03*
Y7000004D02*
D03*
X7500004Y6800004D02*
D03*
X7400004Y6600004D02*
D03*
X7500004Y6400003D02*
D03*
X7400004Y6200003D02*
D03*
D75*
X8543208Y8440709D02*
D03*
X8600000Y8647500D02*
D03*
X8800000Y8650000D02*
D03*
X8411397Y8311103D02*
D03*
X8590000Y8212500D02*
D03*
X8905000Y8445000D02*
D03*
X8524557Y8552943D02*
D03*
X9277500Y7175000D02*
D03*
X9640000Y7997500D02*
D03*
X9395000Y8000000D02*
D03*
X8120000Y8122500D02*
D03*
X7752500Y8075000D02*
D03*
X7750000Y7910000D02*
D03*
X9080000Y7042500D02*
D03*
X9877500Y6982500D02*
D03*
X9982500Y7100000D02*
D03*
X8750000Y6695000D02*
D03*
X8780000Y7030000D02*
D03*
X9177500Y8885000D02*
D03*
X7987500Y7775000D02*
D03*
X8132500Y7477500D02*
D03*
X7627500Y7435000D02*
D03*
X7600000Y7195000D02*
D03*
X8085000Y7005000D02*
D03*
X9205000Y7282500D02*
D03*
X10380000Y6782500D02*
D03*
X10132500Y6695000D02*
D03*
X9877500Y6905000D02*
D03*
X9872500Y7097500D02*
D03*
X10135000Y7880000D02*
D03*
X9372500Y7902500D02*
D03*
X7531250Y8328750D02*
D03*
X7527500Y8525000D02*
D03*
X9280000Y8970000D02*
D03*
X8157898Y7605000D02*
D03*
D76*
X8032500Y8505000D02*
D03*
Y8395000D02*
D03*
X7922500D02*
D03*
Y8505000D02*
D03*
X8990000Y7430000D02*
D03*
X8880000D02*
D03*
X8770000D02*
D03*
X8660000D02*
D03*
X8550000D02*
D03*
X8990000Y7540000D02*
D03*
X8880000D02*
D03*
X8770000D02*
D03*
X8660000D02*
D03*
X8550000D02*
D03*
X8990000Y7650000D02*
D03*
X8880000D02*
D03*
X8770000D02*
D03*
X8660000D02*
D03*
X8550000D02*
D03*
X8990000Y7760000D02*
D03*
X8880000D02*
D03*
X8770000D02*
D03*
X8660000D02*
D03*
X8550000D02*
D03*
X8990000Y7870000D02*
D03*
X8880000D02*
D03*
X8770000D02*
D03*
X8660000D02*
D03*
X8550000D02*
D03*
%TF.MD5,d2fef206d01e10bdada37987bca72537*%
M02*
