%TF.GenerationSoftware,Altium Limited,Altium Designer,23.4.1 (23)*%
G04 Layer_Physical_Order=2*
G04 Layer_Color=36540*
%FSLAX45Y45*%
%MOMM*%
%TF.SameCoordinates,E9D3CAE9-A23F-4039-930E-E97F2D72BBB1*%
%TF.FilePolarity,Positive*%
%TF.FileFunction,Copper,L2,Inr,Signal*%
%TF.Part,Single*%
G01*
G75*
%TA.AperFunction,ComponentPad*%
%ADD41C,3.20000*%
%ADD42C,1.06700*%
%TA.AperFunction,ViaPad*%
%ADD43C,0.80000*%
%ADD44C,0.60000*%
%ADD45C,0.50000*%
G36*
X10603322Y9084224D02*
X10624308Y9076334D01*
X10643351Y9064501D01*
X10659719Y9049178D01*
X10672782Y9030957D01*
X10682038Y9010537D01*
X10687132Y8988704D01*
X10687500Y8977500D01*
X10687499Y6167499D01*
X10687497Y6167498D01*
X10686635Y6151370D01*
X10678651Y6120071D01*
X10664716Y6090931D01*
X10645362Y6065069D01*
X10621336Y6043480D01*
X10593559Y6026993D01*
X10563099Y6016241D01*
X10531128Y6011638D01*
X10515000Y6012500D01*
X7352499D01*
X7343389Y6012745D01*
X7325613Y6016782D01*
X7308967Y6024209D01*
X7294090Y6034742D01*
X7281554Y6047974D01*
X7271841Y6063399D01*
X7265323Y6080422D01*
X7262253Y6098389D01*
X7262500Y6107500D01*
X7262500Y8910455D01*
X7260347Y8925743D01*
X7262091Y8956571D01*
X7269816Y8986467D01*
X7283227Y9014280D01*
X7301808Y9038942D01*
X7324844Y9059503D01*
X7351449Y9075175D01*
X7380601Y9085353D01*
X7395890Y9087500D01*
X7454877D01*
X7456128Y9074800D01*
X7447496Y9073083D01*
X7414738Y9059514D01*
X7385257Y9039815D01*
X7360185Y9014743D01*
X7340486Y8985262D01*
X7326917Y8952504D01*
X7320000Y8917728D01*
Y8882272D01*
X7326917Y8847496D01*
X7340486Y8814738D01*
X7360185Y8785257D01*
X7385257Y8760185D01*
X7414738Y8740486D01*
X7447496Y8726917D01*
X7482272Y8720000D01*
X7517728D01*
X7552504Y8726917D01*
X7585262Y8740486D01*
X7614743Y8760185D01*
X7639815Y8785257D01*
X7659514Y8814738D01*
X7673083Y8847496D01*
X7680000Y8882272D01*
Y8917728D01*
X7673083Y8952504D01*
X7659514Y8985262D01*
X7639815Y9014743D01*
X7614743Y9039815D01*
X7585262Y9059514D01*
X7552504Y9073083D01*
X7543872Y9074800D01*
X7545123Y9087500D01*
X10569995Y9087499D01*
X10569997Y9087496D01*
X10569997Y9087496D01*
X10570127Y9087500D01*
X10582540Y9087647D01*
X10603322Y9084224D01*
D02*
G37*
%LPC*%
G36*
X9289946Y9020000D02*
X9270054D01*
X9251677Y9012388D01*
X9237612Y8998323D01*
X9230000Y8979946D01*
Y8960054D01*
X9237612Y8941677D01*
X9251677Y8927612D01*
X9270054Y8920000D01*
X9289946D01*
X9308323Y8927612D01*
X9322388Y8941677D01*
X9330000Y8960054D01*
Y8979946D01*
X9322388Y8998323D01*
X9308323Y9012388D01*
X9289946Y9020000D01*
D02*
G37*
G36*
X8809946Y8700000D02*
X8790054D01*
X8771677Y8692388D01*
X8757612Y8678323D01*
X8750000Y8659946D01*
Y8640054D01*
X8757612Y8621677D01*
X8771677Y8607612D01*
X8790054Y8600000D01*
X8809946D01*
X8828323Y8607612D01*
X8842388Y8621677D01*
X8850000Y8640054D01*
Y8659946D01*
X8842388Y8678323D01*
X8828323Y8692388D01*
X8809946Y8700000D01*
D02*
G37*
G36*
X8609946Y8697500D02*
X8590054D01*
X8571677Y8689888D01*
X8557612Y8675823D01*
X8550000Y8657446D01*
Y8637554D01*
X8557612Y8619177D01*
X8571677Y8605112D01*
X8590054Y8597500D01*
X8609946D01*
X8628323Y8605112D01*
X8642388Y8619177D01*
X8650000Y8637554D01*
Y8657446D01*
X8642388Y8675823D01*
X8628323Y8689888D01*
X8609946Y8697500D01*
D02*
G37*
G36*
X9185657Y8736450D02*
X9166343D01*
X9147688Y8731451D01*
X9130962Y8721794D01*
X9117305Y8708138D01*
X9107649Y8691412D01*
X9102650Y8672756D01*
Y8653443D01*
X9107649Y8634788D01*
X9117305Y8618062D01*
X9130962Y8604405D01*
X9147688Y8594749D01*
X9166343Y8589750D01*
X9185657D01*
X9204312Y8594749D01*
X9221038Y8604405D01*
X9234695Y8618062D01*
X9244351Y8634788D01*
X9249350Y8653443D01*
Y8672756D01*
X9244351Y8691412D01*
X9234695Y8708138D01*
X9221038Y8721794D01*
X9204312Y8731451D01*
X9185657Y8736450D01*
D02*
G37*
G36*
X8534503Y8602943D02*
X8514611D01*
X8496234Y8595331D01*
X8482169Y8581266D01*
X8474557Y8562889D01*
Y8542997D01*
X8482169Y8524620D01*
X8496234Y8510555D01*
X8514611Y8502943D01*
X8534503D01*
X8552880Y8510555D01*
X8566945Y8524620D01*
X8574557Y8542997D01*
Y8562889D01*
X8566945Y8581266D01*
X8552880Y8595331D01*
X8534503Y8602943D01*
D02*
G37*
G36*
X9693657Y8634850D02*
X9674343D01*
X9655688Y8629851D01*
X9638962Y8620194D01*
X9625305Y8606538D01*
X9615649Y8589812D01*
X9610650Y8571156D01*
Y8551843D01*
X9615649Y8533188D01*
X9625305Y8516462D01*
X9638962Y8502805D01*
X9655688Y8493149D01*
X9674343Y8488150D01*
X9693657D01*
X9712312Y8493149D01*
X9729038Y8502805D01*
X9742695Y8516462D01*
X9752351Y8533188D01*
X9757350Y8551843D01*
Y8571156D01*
X9752351Y8589812D01*
X9742695Y8606538D01*
X9729038Y8620194D01*
X9712312Y8629851D01*
X9693657Y8634850D01*
D02*
G37*
G36*
X8914946Y8495000D02*
X8895054D01*
X8876677Y8487388D01*
X8862612Y8473323D01*
X8855000Y8454945D01*
Y8435054D01*
X8862612Y8416677D01*
X8876677Y8402612D01*
X8895054Y8395000D01*
X8914946D01*
X8933323Y8402612D01*
X8947388Y8416677D01*
X8955000Y8435054D01*
Y8454945D01*
X8947388Y8473323D01*
X8933323Y8487388D01*
X8914946Y8495000D01*
D02*
G37*
G36*
X9185657Y8533250D02*
X9166343D01*
X9147688Y8528251D01*
X9130962Y8518594D01*
X9117305Y8504938D01*
X9107649Y8488212D01*
X9102650Y8469556D01*
Y8450243D01*
X9107649Y8431588D01*
X9117305Y8414862D01*
X9130962Y8401205D01*
X9147688Y8391549D01*
X9166343Y8386550D01*
X9185657D01*
X9204312Y8391549D01*
X9221038Y8401205D01*
X9234695Y8414862D01*
X9244351Y8431588D01*
X9249350Y8450243D01*
Y8469556D01*
X9244351Y8488212D01*
X9234695Y8504938D01*
X9221038Y8518594D01*
X9204312Y8528251D01*
X9185657Y8533250D01*
D02*
G37*
G36*
X7762446Y8125000D02*
X7742554D01*
X7724177Y8117388D01*
X7710112Y8103323D01*
X7702500Y8084946D01*
Y8065054D01*
X7710112Y8046677D01*
X7724177Y8032612D01*
X7742554Y8025000D01*
X7762446D01*
X7780823Y8032612D01*
X7794888Y8046677D01*
X7802500Y8065054D01*
Y8084946D01*
X7794888Y8103323D01*
X7780823Y8117388D01*
X7762446Y8125000D01*
D02*
G37*
G36*
X9404946Y8050000D02*
X9385054D01*
X9366677Y8042388D01*
X9352612Y8028323D01*
X9345000Y8009946D01*
Y7990054D01*
X9352612Y7971677D01*
X9366677Y7957612D01*
X9385054Y7950000D01*
X9404946D01*
X9423323Y7957612D01*
X9437388Y7971677D01*
X9445000Y7990054D01*
Y8009946D01*
X9437388Y8028323D01*
X9423323Y8042388D01*
X9404946Y8050000D01*
D02*
G37*
G36*
X9649946Y8047500D02*
X9630054D01*
X9611677Y8039888D01*
X9597612Y8025823D01*
X9590000Y8007446D01*
Y7987554D01*
X9597612Y7969177D01*
X9611677Y7955112D01*
X9630054Y7947500D01*
X9649946D01*
X9668323Y7955112D01*
X9682388Y7969177D01*
X9690000Y7987554D01*
Y8007446D01*
X9682388Y8025823D01*
X9668323Y8039888D01*
X9649946Y8047500D01*
D02*
G37*
G36*
X7759946Y7960000D02*
X7740054D01*
X7721677Y7952388D01*
X7707612Y7938323D01*
X7700000Y7919946D01*
Y7900054D01*
X7707612Y7881677D01*
X7721677Y7867612D01*
X7740054Y7860000D01*
X7759946D01*
X7778323Y7867612D01*
X7792388Y7881677D01*
X7800000Y7900054D01*
Y7919946D01*
X7792388Y7938323D01*
X7778323Y7952388D01*
X7759946Y7960000D01*
D02*
G37*
G36*
X8167843Y7655000D02*
X8147952D01*
X8129575Y7647388D01*
X8115510Y7633323D01*
X8107898Y7614946D01*
Y7595055D01*
X8115510Y7576678D01*
X8129575Y7562612D01*
X8147952Y7555000D01*
X8167843D01*
X8186221Y7562612D01*
X8200286Y7576678D01*
X8207898Y7595055D01*
Y7614946D01*
X8200286Y7633323D01*
X8186221Y7647388D01*
X8167843Y7655000D01*
D02*
G37*
G36*
X9287446Y7225000D02*
X9267554D01*
X9249177Y7217388D01*
X9235112Y7203323D01*
X9227500Y7184945D01*
Y7165054D01*
X9235112Y7146677D01*
X9249177Y7132612D01*
X9267554Y7125000D01*
X9287446D01*
X9305823Y7132612D01*
X9319888Y7146677D01*
X9327500Y7165054D01*
Y7184945D01*
X9319888Y7203323D01*
X9305823Y7217388D01*
X9287446Y7225000D01*
D02*
G37*
%LPD*%
D41*
X7500000Y8900000D02*
D03*
D42*
X9176000Y8663100D02*
D03*
Y8459900D02*
D03*
X9684000Y8561500D02*
D03*
D43*
X10500006Y8400005D02*
D03*
Y7200004D02*
D03*
X10400006Y7000004D02*
D03*
X10500006Y6800004D02*
D03*
Y6400003D02*
D03*
X10400006Y6200003D02*
D03*
X10300006Y8400005D02*
D03*
X10200006Y8200004D02*
D03*
X10300006Y7200004D02*
D03*
X10200006Y7000004D02*
D03*
X10000005Y8600005D02*
D03*
X10100005Y8400005D02*
D03*
X10000005Y8200004D02*
D03*
X10100005Y8000004D02*
D03*
X9900005Y8800005D02*
D03*
Y8400005D02*
D03*
Y8000004D02*
D03*
X9800005Y6600004D02*
D03*
X9700005Y8400005D02*
D03*
X9400005Y8200004D02*
D03*
X9500005Y7600004D02*
D03*
X9300005D02*
D03*
Y6400003D02*
D03*
X9200005Y6200003D02*
D03*
X9100005Y8800005D02*
D03*
X9000005Y8600005D02*
D03*
X9100005Y6800004D02*
D03*
Y6400003D02*
D03*
X8900005Y6800004D02*
D03*
X8800005Y6200003D02*
D03*
X8300004Y8800005D02*
D03*
X8200004Y8200004D02*
D03*
X8100004Y8800005D02*
D03*
Y7200004D02*
D03*
X8000004Y6600004D02*
D03*
X7900004Y8800005D02*
D03*
X7800004Y6600004D02*
D03*
Y6200003D02*
D03*
X7700004Y7600004D02*
D03*
X7600004Y6600004D02*
D03*
X7700004Y6400003D02*
D03*
X7600004Y6200003D02*
D03*
X7400004Y7800004D02*
D03*
Y7400004D02*
D03*
Y7000004D02*
D03*
X7500004Y6800004D02*
D03*
X7400004Y6600004D02*
D03*
X7500004Y6400003D02*
D03*
X7400004Y6200003D02*
D03*
D44*
X8543208Y8440709D02*
D03*
X8600000Y8647500D02*
D03*
X8800000Y8650000D02*
D03*
X8411397Y8311103D02*
D03*
X8590000Y8212500D02*
D03*
X8905000Y8445000D02*
D03*
X8524557Y8552943D02*
D03*
X9277500Y7175000D02*
D03*
X9640000Y7997500D02*
D03*
X9395000Y8000000D02*
D03*
X8120000Y8122500D02*
D03*
X7752500Y8075000D02*
D03*
X7750000Y7910000D02*
D03*
X9080000Y7042500D02*
D03*
X9877500Y6982500D02*
D03*
X9982500Y7100000D02*
D03*
X8750000Y6695000D02*
D03*
X8780000Y7030000D02*
D03*
X9177500Y8885000D02*
D03*
X7987500Y7775000D02*
D03*
X8132500Y7477500D02*
D03*
X7627500Y7435000D02*
D03*
X7600000Y7195000D02*
D03*
X8085000Y7005000D02*
D03*
X9205000Y7282500D02*
D03*
X10380000Y6782500D02*
D03*
X10132500Y6695000D02*
D03*
X9877500Y6905000D02*
D03*
X9872500Y7097500D02*
D03*
X10135000Y7880000D02*
D03*
X9372500Y7902500D02*
D03*
X7531250Y8328750D02*
D03*
X7527500Y8525000D02*
D03*
X9280000Y8970000D02*
D03*
X8157898Y7605000D02*
D03*
D45*
X8032500Y8505000D02*
D03*
Y8395000D02*
D03*
X7922500D02*
D03*
Y8505000D02*
D03*
X8990000Y7430000D02*
D03*
X8880000D02*
D03*
X8770000D02*
D03*
X8660000D02*
D03*
X8550000D02*
D03*
X8990000Y7540000D02*
D03*
X8880000D02*
D03*
X8770000D02*
D03*
X8660000D02*
D03*
X8550000D02*
D03*
X8990000Y7650000D02*
D03*
X8880000D02*
D03*
X8770000D02*
D03*
X8660000D02*
D03*
X8550000D02*
D03*
X8990000Y7760000D02*
D03*
X8880000D02*
D03*
X8770000D02*
D03*
X8660000D02*
D03*
X8550000D02*
D03*
X8990000Y7870000D02*
D03*
X8880000D02*
D03*
X8770000D02*
D03*
X8660000D02*
D03*
X8550000D02*
D03*
%TF.MD5,1bc7ca203ff0c1004f1efa7160eb702b*%
M02*
