%TF.GenerationSoftware,Altium Limited,Altium Designer,23.4.1 (23)*%
G04 Layer_Physical_Order=4*
G04 Layer_Color=16711680*
%FSLAX45Y45*%
%MOMM*%
%TF.SameCoordinates,E9D3CAE9-A23F-4039-930E-E97F2D72BBB1*%
%TF.FilePolarity,Positive*%
%TF.FileFunction,Copper,L4,Bot,Signal*%
%TF.Part,Single*%
G01*
G75*
%TA.AperFunction,Conductor*%
%ADD10C,0.20000*%
%ADD35C,0.40000*%
%ADD37C,0.30000*%
%TA.AperFunction,ComponentPad*%
%ADD41C,3.20000*%
%ADD42C,1.06700*%
%TA.AperFunction,ViaPad*%
%ADD43C,0.80000*%
%ADD44C,0.60000*%
%ADD45C,0.50000*%
D10*
X8600000Y8647500D02*
X8601250Y8648750D01*
X8798750D02*
X8800000Y8650000D01*
X8601250Y8648750D02*
X8798750D01*
X8290000Y7737102D02*
Y8552500D01*
X8516371Y8778870D02*
X9002007D01*
X8290000Y8552500D02*
X8516371Y8778870D01*
X9013723Y8790586D02*
Y8863723D01*
X9002007Y8778870D02*
X9013723Y8790586D01*
X8160465Y7607567D02*
X8290000Y7737102D01*
X9013723Y8863723D02*
X9120000Y8970000D01*
X9280000D01*
X8157898Y7607567D02*
X8160465D01*
X8157898Y7605000D02*
Y7607567D01*
D35*
X8529969Y8552943D02*
X8637912Y8445000D01*
X8905000D01*
X8524557Y8552943D02*
X8529969D01*
X8953827Y8441173D02*
X9395000Y8000000D01*
X8908827Y8441173D02*
X8953827D01*
X8905000Y8445000D02*
X8908827Y8441173D01*
X9637500Y8000000D02*
X9640000Y7997500D01*
X9395000Y8000000D02*
X9637500D01*
X7751250Y7911250D02*
Y8073750D01*
X7750000Y7910000D02*
X7751250Y7911250D01*
Y8073750D02*
X7752500Y8075000D01*
D37*
X9277500Y7175000D02*
X9640000Y7537500D01*
Y7997500D01*
D41*
X7500000Y8900000D02*
D03*
D42*
X9176000Y8663100D02*
D03*
Y8459900D02*
D03*
X9684000Y8561500D02*
D03*
D43*
X10500006Y8400005D02*
D03*
Y7200004D02*
D03*
X10400006Y7000004D02*
D03*
X10500006Y6800004D02*
D03*
Y6400003D02*
D03*
X10400006Y6200003D02*
D03*
X10300006Y8400005D02*
D03*
X10200006Y8200004D02*
D03*
X10300006Y7200004D02*
D03*
X10200006Y7000004D02*
D03*
X10000005Y8600005D02*
D03*
X10100005Y8400005D02*
D03*
X10000005Y8200004D02*
D03*
X10100005Y8000004D02*
D03*
X9900005Y8800005D02*
D03*
Y8400005D02*
D03*
Y8000004D02*
D03*
X9800005Y6600004D02*
D03*
X9700005Y8400005D02*
D03*
X9400005Y8200004D02*
D03*
X9500005Y7600004D02*
D03*
X9300005D02*
D03*
Y6400003D02*
D03*
X9200005Y6200003D02*
D03*
X9100005Y8800005D02*
D03*
X9000005Y8600005D02*
D03*
X9100005Y6800004D02*
D03*
Y6400003D02*
D03*
X8900005Y6800004D02*
D03*
X8800005Y6200003D02*
D03*
X8300004Y8800005D02*
D03*
X8200004Y8200004D02*
D03*
X8100004Y8800005D02*
D03*
Y7200004D02*
D03*
X8000004Y6600004D02*
D03*
X7900004Y8800005D02*
D03*
X7800004Y6600004D02*
D03*
Y6200003D02*
D03*
X7700004Y7600004D02*
D03*
X7600004Y6600004D02*
D03*
X7700004Y6400003D02*
D03*
X7600004Y6200003D02*
D03*
X7400004Y7800004D02*
D03*
Y7400004D02*
D03*
Y7000004D02*
D03*
X7500004Y6800004D02*
D03*
X7400004Y6600004D02*
D03*
X7500004Y6400003D02*
D03*
X7400004Y6200003D02*
D03*
D44*
X8543208Y8440709D02*
D03*
X8600000Y8647500D02*
D03*
X8800000Y8650000D02*
D03*
X8411397Y8311103D02*
D03*
X8590000Y8212500D02*
D03*
X8905000Y8445000D02*
D03*
X8524557Y8552943D02*
D03*
X9277500Y7175000D02*
D03*
X9640000Y7997500D02*
D03*
X9395000Y8000000D02*
D03*
X8120000Y8122500D02*
D03*
X7752500Y8075000D02*
D03*
X7750000Y7910000D02*
D03*
X9080000Y7042500D02*
D03*
X9877500Y6982500D02*
D03*
X9982500Y7100000D02*
D03*
X8750000Y6695000D02*
D03*
X8780000Y7030000D02*
D03*
X9177500Y8885000D02*
D03*
X7987500Y7775000D02*
D03*
X8132500Y7477500D02*
D03*
X7627500Y7435000D02*
D03*
X7600000Y7195000D02*
D03*
X8085000Y7005000D02*
D03*
X9205000Y7282500D02*
D03*
X10380000Y6782500D02*
D03*
X10132500Y6695000D02*
D03*
X9877500Y6905000D02*
D03*
X9872500Y7097500D02*
D03*
X10135000Y7880000D02*
D03*
X9372500Y7902500D02*
D03*
X7531250Y8328750D02*
D03*
X7527500Y8525000D02*
D03*
X9280000Y8970000D02*
D03*
X8157898Y7605000D02*
D03*
D45*
X8032500Y8505000D02*
D03*
Y8395000D02*
D03*
X7922500D02*
D03*
Y8505000D02*
D03*
X8990000Y7430000D02*
D03*
X8880000D02*
D03*
X8770000D02*
D03*
X8660000D02*
D03*
X8550000D02*
D03*
X8990000Y7540000D02*
D03*
X8880000D02*
D03*
X8770000D02*
D03*
X8660000D02*
D03*
X8550000D02*
D03*
X8990000Y7650000D02*
D03*
X8880000D02*
D03*
X8770000D02*
D03*
X8660000D02*
D03*
X8550000D02*
D03*
X8990000Y7760000D02*
D03*
X8880000D02*
D03*
X8770000D02*
D03*
X8660000D02*
D03*
X8550000D02*
D03*
X8990000Y7870000D02*
D03*
X8880000D02*
D03*
X8770000D02*
D03*
X8660000D02*
D03*
X8550000D02*
D03*
%TF.MD5,5c91c94b19e38215c5b328b994bfdaa9*%
M02*
